<svg width="22" height="22" viewBox="0 0 18 18" fill="none" xmlns="http://www.w3.org/2000/svg">
<path d="M16.9834 5.49805C16.9436 4.59477 16.7975 3.97378 16.5883 3.43568C16.3724 2.8645 16.0403 2.35312 15.6052 1.92801C15.1801 1.49629 14.6653 1.16082 14.1008 0.94833C13.5596 0.739083 12.9418 0.593013 12.0385 0.553187C11.1285 0.509989 10.8396 0.5 8.53154 0.5C6.22347 0.5 5.93458 0.509989 5.02793 0.549814C4.12465 0.58964 3.50366 0.73584 2.96569 0.944957C2.39438 1.16082 1.883 1.49292 1.45789 1.92801C1.02617 2.35312 0.690826 2.86787 0.478207 3.43243C0.26896 3.97378 0.12289 4.5914 0.083064 5.49467C0.0398655 6.40469 0.0298767 6.69359 0.0298767 9.00166C0.0298767 11.3097 0.0398655 11.5986 0.0796912 12.5053C0.119517 13.4085 0.265717 14.0295 0.474964 14.5676C0.690826 15.1388 1.02617 15.6502 1.45789 16.0753C1.883 16.507 2.39775 16.8425 2.96231 17.055C3.50366 17.2642 4.12128 17.4103 5.02468 17.4501C5.9312 17.4901 6.22023 17.4999 8.5283 17.4999C10.8364 17.4999 11.1253 17.4901 12.0319 17.4501C12.9352 17.4103 13.5562 17.2642 14.0942 17.055C15.2366 16.6133 16.1399 15.71 16.5816 14.5676C16.7908 14.0263 16.937 13.4085 16.9768 12.5053C17.0166 11.5986 17.0266 11.3097 17.0266 9.00166C17.0266 6.69359 17.0232 6.40469 16.9834 5.49805ZM15.4525 12.4389C15.4159 13.2691 15.2765 13.7174 15.1602 14.0163C14.8746 14.7569 14.2868 15.3447 13.5462 15.6304C13.2473 15.7466 12.7957 15.886 11.9687 15.9225C11.0721 15.9624 10.8032 15.9723 8.53492 15.9723C6.26667 15.9723 5.99438 15.9624 5.10096 15.9225C4.27072 15.886 3.82239 15.7466 3.5235 15.6304C3.15496 15.4941 2.81949 15.2783 2.54719 14.996C2.26491 14.7203 2.04905 14.3882 1.91284 14.0197C1.7966 13.7208 1.65715 13.2691 1.6207 12.4422C1.58074 11.5456 1.57088 11.2765 1.57088 9.00828C1.57088 6.74003 1.58074 6.46774 1.6207 5.57445C1.65715 4.74421 1.7966 4.29588 1.91284 3.997C2.04905 3.62832 2.26491 3.29298 2.55057 3.02056C2.8261 2.73828 3.1582 2.52241 3.52688 2.38633C3.82576 2.2701 4.27747 2.13064 5.10434 2.09406C6.001 2.05424 6.27005 2.04425 8.53816 2.04425C10.8098 2.04425 11.0787 2.05424 11.9721 2.09406C12.8024 2.13064 13.2507 2.2701 13.5496 2.38633C13.9181 2.52241 14.2536 2.73828 14.5259 3.02056C14.8082 3.29622 15.024 3.62832 15.1602 3.997C15.2765 4.29588 15.4159 4.74746 15.4525 5.57445C15.4923 6.47111 15.5023 6.74003 15.5023 9.00828C15.5023 11.2765 15.4923 11.5422 15.4525 12.4389Z" fill="white"/>
<path d="M8.53153 4.63459C6.12059 4.63459 4.16447 6.59059 4.16447 9.00165C4.16447 11.4127 6.12059 13.3687 8.53153 13.3687C10.9426 13.3687 12.8986 11.4127 12.8986 9.00165C12.8986 6.59059 10.9426 4.63459 8.53153 4.63459ZM8.53153 11.8345C6.96744 11.8345 5.69873 10.5659 5.69873 9.00165C5.69873 7.43743 6.96744 6.16885 8.53153 6.16885C10.0958 6.16885 11.3643 7.43743 11.3643 9.00165C11.3643 10.5659 10.0958 11.8345 8.53153 11.8345Z" fill="white"/>
<path d="M14.0909 4.46192C14.0909 5.02493 13.6344 5.48143 13.0713 5.48143C12.5083 5.48143 12.0518 5.02493 12.0518 4.46192C12.0518 3.89879 12.5083 3.44241 13.0713 3.44241C13.6344 3.44241 14.0909 3.89879 14.0909 4.46192Z" fill="white"/>
</svg>
